<svg xmlns="http://www.w3.org/2000/svg" width="460" height="160" viewBox="0 0 460 160" role="img" font-family="-apple-system,BlinkMacSystemFont,'Segoe UI',Roboto,'Apple SD Gothic Neo','Malgun Gothic',sans-serif"><defs><linearGradient id="bgg" x1="0" y1="0" x2="0" y2="1"><stop offset="0" stop-color="#161b22"/><stop offset="1" stop-color="#0d1117"/></linearGradient><linearGradient id="monthly-gradient" x1="0" y1="0" x2="0" y2="1"><stop offset="0%" stop-color="#5f8cff"/><stop offset="100%" stop-color="#2ee6d6"/></linearGradient></defs><rect x="0.5" y="0.5" width="459" height="159" rx="14" fill="url(#bgg)" stroke="#30363d"/><text x="20" y="30" font-family="-apple-system,BlinkMacSystemFont,'Segoe UI',Roboto,'Apple SD Gothic Neo','Malgun Gothic',sans-serif" font-size="13" font-weight="700" fill="#7d8590" letter-spacing="0.5">MONTHLY ACTIVITY</text><rect x="30.3" y="103.9" width="26.0" height="26.1" rx="3" fill="url(#monthly-gradient)"/><text x="43.3" y="99.9" text-anchor="middle" font-size="9.5" font-weight="700" fill="#e6edf3">21</text><text x="43.3" y="144.0" text-anchor="middle" font-size="8.5" fill="#7d8590">25-09</text><rect x="77.0" y="120.1" width="26.0" height="9.9" rx="3" fill="url(#monthly-gradient)"/><text x="90.0" y="116.1" text-anchor="middle" font-size="9.5" font-weight="700" fill="#e6edf3">8</text><text x="90.0" y="144.0" text-anchor="middle" font-size="8.5" fill="#7d8590">25-11</text><rect x="123.7" y="101.4" width="26.0" height="28.6" rx="3" fill="url(#monthly-gradient)"/><text x="136.7" y="97.4" text-anchor="middle" font-size="9.5" font-weight="700" fill="#e6edf3">23</text><text x="136.7" y="144.0" text-anchor="middle" font-size="8.5" fill="#7d8590">25-12</text><rect x="170.3" y="122.5" width="26.0" height="7.5" rx="3" fill="url(#monthly-gradient)"/><text x="183.3" y="118.5" text-anchor="middle" font-size="9.5" font-weight="700" fill="#e6edf3">6</text><text x="183.3" y="144.0" text-anchor="middle" font-size="8.5" fill="#7d8590">26-01</text><rect x="217.0" y="105.2" width="26.0" height="24.8" rx="3" fill="url(#monthly-gradient)"/><text x="230.0" y="101.2" text-anchor="middle" font-size="9.5" font-weight="700" fill="#e6edf3">20</text><text x="230.0" y="144.0" text-anchor="middle" font-size="8.5" fill="#7d8590">26-02</text><rect x="263.7" y="127.5" width="26.0" height="2.5" rx="3" fill="url(#monthly-gradient)"/><text x="276.7" y="123.5" text-anchor="middle" font-size="9.5" font-weight="700" fill="#e6edf3">2</text><text x="276.7" y="144.0" text-anchor="middle" font-size="8.5" fill="#7d8590">26-03</text><rect x="310.3" y="123.8" width="26.0" height="6.2" rx="3" fill="url(#monthly-gradient)"/><text x="323.3" y="119.8" text-anchor="middle" font-size="9.5" font-weight="700" fill="#e6edf3">5</text><text x="323.3" y="144.0" text-anchor="middle" font-size="8.5" fill="#7d8590">26-04</text><rect x="357.0" y="60.4" width="26.0" height="69.6" rx="3" fill="url(#monthly-gradient)"/><text x="370.0" y="56.4" text-anchor="middle" font-size="9.5" font-weight="700" fill="#e6edf3">56</text><text x="370.0" y="144.0" text-anchor="middle" font-size="8.5" fill="#7d8590">26-06</text><rect x="403.7" y="91.5" width="26.0" height="38.5" rx="3" fill="url(#monthly-gradient)"/><text x="416.7" y="87.5" text-anchor="middle" font-size="9.5" font-weight="700" fill="#e6edf3">31</text><text x="416.7" y="144.0" text-anchor="middle" font-size="8.5" fill="#7d8590">26-07</text></svg>