<svg xmlns="http://www.w3.org/2000/svg" width="460" height="236" viewBox="0 0 460 236" role="img" font-family="-apple-system,BlinkMacSystemFont,'Segoe UI',Roboto,'Apple SD Gothic Neo','Malgun Gothic',sans-serif"><defs><linearGradient id="bgg" x1="0" y1="0" x2="0" y2="1"><stop offset="0" stop-color="#161b22"/><stop offset="1" stop-color="#0d1117"/></linearGradient><linearGradient id="daily-gradient" x1="0" y1="0" x2="1" y2="0"><stop offset="0%" stop-color="#2ee6d6"/><stop offset="100%" stop-color="#60a7ff"/></linearGradient></defs><rect x="0.5" y="0.5" width="459" height="235" rx="14" fill="url(#bgg)" stroke="#30363d"/><text x="20" y="30" font-family="-apple-system,BlinkMacSystemFont,'Segoe UI',Roboto,'Apple SD Gothic Neo','Malgun Gothic',sans-serif" font-size="13" font-weight="700" fill="#7d8590" letter-spacing="0.5">DAILY ACTIVITY</text><rect x="20" y="48" width="420" height="172" rx="18" fill="#09101a" stroke="#1b2631" stroke-width="1.4"/><text x="36" y="78.0" font-size="11" fill="#e6edf3" dominant-baseline="middle">26/07/23</text><rect x="120" y="71.0" width="278" height="14" rx="7.0" fill="#21262d"/><rect x="120" y="71.0" width="23.2" height="14" rx="7.0" fill="url(#daily-gradient)"/><text x="422" y="78.0" font-size="11" fill="#e6edf3" dominant-baseline="middle" text-anchor="end">1</text><line x1="36" y1="92" x2="424" y2="92" stroke="#16203a" stroke-width="1"/><text x="36" y="106.0" font-size="11" fill="#e6edf3" dominant-baseline="middle">26/07/22</text><rect x="120" y="99.0" width="278" height="14" rx="7.0" fill="#21262d"/><rect x="120" y="99.0" width="69.5" height="14" rx="7.0" fill="url(#daily-gradient)"/><text x="422" y="106.0" font-size="11" fill="#e6edf3" dominant-baseline="middle" text-anchor="end">3</text><line x1="36" y1="120" x2="424" y2="120" stroke="#16203a" stroke-width="1"/><text x="36" y="134.0" font-size="11" fill="#e6edf3" dominant-baseline="middle">26/07/21</text><rect x="120" y="127.0" width="278" height="14" rx="7.0" fill="#21262d"/><rect x="120" y="127.0" width="278.0" height="14" rx="7.0" fill="url(#daily-gradient)"/><text x="422" y="134.0" font-size="11" fill="#e6edf3" dominant-baseline="middle" text-anchor="end">12</text><line x1="36" y1="148" x2="424" y2="148" stroke="#16203a" stroke-width="1"/><text x="36" y="162.0" font-size="11" fill="#e6edf3" dominant-baseline="middle">26/07/20</text><rect x="120" y="155.0" width="278" height="14" rx="7.0" fill="#21262d"/><rect x="120" y="155.0" width="139.0" height="14" rx="7.0" fill="url(#daily-gradient)"/><text x="422" y="162.0" font-size="11" fill="#e6edf3" dominant-baseline="middle" text-anchor="end">6</text><line x1="36" y1="176" x2="424" y2="176" stroke="#16203a" stroke-width="1"/><text x="36" y="190.0" font-size="11" fill="#e6edf3" dominant-baseline="middle">26/07/19</text><rect x="120" y="183.0" width="278" height="14" rx="7.0" fill="#21262d"/><rect x="120" y="183.0" width="92.7" height="14" rx="7.0" fill="url(#daily-gradient)"/><text x="422" y="190.0" font-size="11" fill="#e6edf3" dominant-baseline="middle" text-anchor="end">4</text></svg>